<svg xmlns="http://www.w3.org/2000/svg" width="760" height="520" style="background:#1a1a2e;font-family:monospace">
<text x="380" y="34" text-anchor="middle" font-size="18" fill="#e0e0e0" font-weight="bold">Cover Height Reference  (PES)</text>
<text x="380" y="54" text-anchor="middle" font-size="12" fill="#777" font-weight="normal">relative to PES player capsule (1.8 m)</text>
<line x1="40" y1="420.0" x2="740" y2="420.0" stroke="#2a2a4a" stroke-width="1" stroke-dasharray="4 4"/>
<text x="34" y="424.0" text-anchor="end" font-size="10" fill="#555" font-weight="normal">0.0m</text>
<line x1="40" y1="340.0" x2="740" y2="340.0" stroke="#2a2a4a" stroke-width="1" stroke-dasharray="4 4"/>
<text x="34" y="344.0" text-anchor="end" font-size="10" fill="#555" font-weight="normal">0.5m</text>
<line x1="40" y1="260.0" x2="740" y2="260.0" stroke="#2a2a4a" stroke-width="1" stroke-dasharray="4 4"/>
<text x="34" y="264.0" text-anchor="end" font-size="10" fill="#555" font-weight="normal">1.0m</text>
<line x1="40" y1="180.0" x2="740" y2="180.0" stroke="#2a2a4a" stroke-width="1" stroke-dasharray="4 4"/>
<text x="34" y="184.0" text-anchor="end" font-size="10" fill="#555" font-weight="normal">1.5m</text>
<line x1="40" y1="100.0" x2="740" y2="100.0" stroke="#2a2a4a" stroke-width="1" stroke-dasharray="4 4"/>
<text x="34" y="104.0" text-anchor="end" font-size="10" fill="#555" font-weight="normal">2.0m</text>
<line x1="40" y1="420" x2="740" y2="420" stroke="#888" stroke-width="1" />
<rect x="95" y="132.0" width="50" height="288.0" fill="#4fc3f7" stroke="#81d4fa" stroke-width="1.5" rx="6" opacity="0.5"/>
<line x1="91" y1="148.0" x2="149" y2="148.0" stroke="#ffe082" stroke-width="1" stroke-dasharray="5 3"/>
<text x="120" y="122.0" text-anchor="middle" font-size="11" fill="#81d4fa" font-weight="normal">Player 1.8m</text>
<rect x="215" y="276.0" width="90" height="144.0" fill="#43a047" stroke="#fff" stroke-width="1.5" rx="3" opacity="0.82"/>
<text x="260" y="340.0" text-anchor="middle" font-size="12" fill="#fff" font-weight="bold">Low</text>
<text x="260" y="356.0" text-anchor="middle" font-size="12" fill="#fff" font-weight="bold">Cover</text>
<text x="260" y="266.0" text-anchor="middle" font-size="11" fill="#ccc" font-weight="normal">0.90m</text>
<text x="260" y="442" text-anchor="middle" font-size="10" fill="#aaa" font-weight="normal">0.8–1.0 m</text>
<text x="260" y="458" text-anchor="middle" font-size="10" fill="#aaa" font-weight="normal">crouched only</text>
<line x1="323" y1="420" x2="323" y2="276.0" stroke="#666" stroke-width="1.5"/>
<polygon points="323,420 319,415 327,415" fill="#666"/>
<polygon points="323,276.0 319,281.0 327,281.0" fill="#666"/>
<text x="327" y="352.0" text-anchor="start" font-size="11" fill="#666" font-weight="normal">0.90m</text>
<rect x="355" y="204.0" width="90" height="216.0" fill="#fb8c00" stroke="#fff" stroke-width="1.5" rx="3" opacity="0.82"/>
<text x="400" y="304.0" text-anchor="middle" font-size="12" fill="#fff" font-weight="bold">Mid</text>
<text x="400" y="320.0" text-anchor="middle" font-size="12" fill="#fff" font-weight="bold">Cover</text>
<text x="400" y="194.0" text-anchor="middle" font-size="11" fill="#ccc" font-weight="normal">1.35m</text>
<text x="400" y="442" text-anchor="middle" font-size="10" fill="#aaa" font-weight="normal">1.2–1.5 m</text>
<text x="400" y="458" text-anchor="middle" font-size="10" fill="#aaa" font-weight="normal">torso hidden</text>
<line x1="463" y1="420" x2="463" y2="204.0" stroke="#666" stroke-width="1.5"/>
<polygon points="463,420 459,415 467,415" fill="#666"/>
<polygon points="463,204.0 459,209.0 467,209.0" fill="#666"/>
<text x="467" y="316.0" text-anchor="start" font-size="11" fill="#666" font-weight="normal">1.35m</text>
<rect x="500" y="108.0" width="90" height="312.0" fill="#e53935" stroke="#fff" stroke-width="1.5" rx="3" opacity="0.82"/>
<text x="545" y="256.0" text-anchor="middle" font-size="12" fill="#fff" font-weight="bold">Full</text>
<text x="545" y="272.0" text-anchor="middle" font-size="12" fill="#fff" font-weight="bold">Cover</text>
<text x="545" y="98.0" text-anchor="middle" font-size="11" fill="#ccc" font-weight="normal">1.95m</text>
<text x="545" y="442" text-anchor="middle" font-size="10" fill="#aaa" font-weight="normal">≥ 1.9 m</text>
<text x="545" y="458" text-anchor="middle" font-size="10" fill="#aaa" font-weight="normal">fully hidden</text>
<line x1="608" y1="420" x2="608" y2="108.0" stroke="#666" stroke-width="1.5"/>
<polygon points="608,420 604,415 612,415" fill="#666"/>
<polygon points="608,108.0 604,113.0 612,113.0" fill="#666"/>
<text x="612" y="268.0" text-anchor="start" font-size="11" fill="#666" font-weight="normal">1.95m</text>
<line x1="590" y1="76" x2="630" y2="76" stroke="#ffe082" stroke-width="1" stroke-dasharray="5 3"/>
<text x="635" y="80" text-anchor="start" font-size="11" fill="#ffe082" font-weight="normal">Player eye (1.70m)</text>
</svg>
