<svg xmlns="http://www.w3.org/2000/svg" width="680" height="400" style="background:#1a1a2e;font-family:monospace">
<text x="340" y="34" text-anchor="middle" font-size="18" fill="#e0e0e0" font-weight="bold">Movement Speed Comparison  (m/s)</text>
<line x1="160.0" y1="55" x2="160.0" y2="360" stroke="#2a2a4a" stroke-width="1" stroke-dasharray="3 4"/>
<text x="160.0" y="376" text-anchor="middle" font-size="10" fill="#666" font-weight="normal">0</text>
<line x1="208.0" y1="55" x2="208.0" y2="360" stroke="#2a2a4a" stroke-width="1" stroke-dasharray="3 4"/>
<text x="208.0" y="376" text-anchor="middle" font-size="10" fill="#666" font-weight="normal">1</text>
<line x1="256.0" y1="55" x2="256.0" y2="360" stroke="#2a2a4a" stroke-width="1" stroke-dasharray="3 4"/>
<text x="256.0" y="376" text-anchor="middle" font-size="10" fill="#666" font-weight="normal">2</text>
<line x1="304.0" y1="55" x2="304.0" y2="360" stroke="#2a2a4a" stroke-width="1" stroke-dasharray="3 4"/>
<text x="304.0" y="376" text-anchor="middle" font-size="10" fill="#666" font-weight="normal">3</text>
<line x1="352.0" y1="55" x2="352.0" y2="360" stroke="#2a2a4a" stroke-width="1" stroke-dasharray="3 4"/>
<text x="352.0" y="376" text-anchor="middle" font-size="10" fill="#666" font-weight="normal">4</text>
<line x1="400.0" y1="55" x2="400.0" y2="360" stroke="#2a2a4a" stroke-width="1" stroke-dasharray="3 4"/>
<text x="400.0" y="376" text-anchor="middle" font-size="10" fill="#666" font-weight="normal">5</text>
<line x1="448.0" y1="55" x2="448.0" y2="360" stroke="#2a2a4a" stroke-width="1" stroke-dasharray="3 4"/>
<text x="448.0" y="376" text-anchor="middle" font-size="10" fill="#666" font-weight="normal">6</text>
<line x1="496.0" y1="55" x2="496.0" y2="360" stroke="#2a2a4a" stroke-width="1" stroke-dasharray="3 4"/>
<text x="496.0" y="376" text-anchor="middle" font-size="10" fill="#666" font-weight="normal">7</text>
<line x1="544.0" y1="55" x2="544.0" y2="360" stroke="#2a2a4a" stroke-width="1" stroke-dasharray="3 4"/>
<text x="544.0" y="376" text-anchor="middle" font-size="10" fill="#666" font-weight="normal">8</text>
<line x1="592.0" y1="55" x2="592.0" y2="360" stroke="#2a2a4a" stroke-width="1" stroke-dasharray="3 4"/>
<text x="592.0" y="376" text-anchor="middle" font-size="10" fill="#666" font-weight="normal">9</text>
<line x1="640.0" y1="55" x2="640.0" y2="360" stroke="#2a2a4a" stroke-width="1" stroke-dasharray="3 4"/>
<text x="640.0" y="376" text-anchor="middle" font-size="10" fill="#666" font-weight="normal">10</text>
<text x="400.0" y="390" text-anchor="middle" font-size="11" fill="#555" font-weight="normal">m/s</text>
<rect x="160" y="68" width="240.0" height="28" fill="#4fc3f7" stroke="none" stroke-width="1.5" rx="3" opacity="0.45"/>
<text x="405.0" y="86.0" text-anchor="start" font-size="10" fill="#aaa" font-weight="normal">walk 5.0</text>
<rect x="160" y="68" width="432.0" height="28" fill="#4fc3f7" stroke="none" stroke-width="1.5" rx="3" opacity="0.88"/>
<text x="597.0" y="86.0" text-anchor="start" font-size="10" fill="#4fc3f7" font-weight="normal">sprint 9.0</text>
<text x="152" y="86.0" text-anchor="end" font-size="11" fill="#ccc" font-weight="normal">PES (current)</text>
<rect x="160" y="120" width="259.20000000000005" height="28" fill="#ab47bc" stroke="none" stroke-width="1.5" rx="3" opacity="0.45"/>
<text x="424.20000000000005" y="138.0" text-anchor="start" font-size="10" fill="#aaa" font-weight="normal">walk 5.4</text>
<rect x="160" y="120" width="316.79999999999995" height="28" fill="#ab47bc" stroke="none" stroke-width="1.5" rx="3" opacity="0.88"/>
<text x="481.79999999999995" y="138.0" text-anchor="start" font-size="10" fill="#ab47bc" font-weight="normal">sprint 6.6</text>
<text x="152" y="138.0" text-anchor="end" font-size="11" fill="#ccc" font-weight="normal">Valorant</text>
<rect x="160" y="172" width="278.4" height="28" fill="#ffa726" stroke="none" stroke-width="1.5" rx="3" opacity="0.45"/>
<text x="443.4" y="190.0" text-anchor="start" font-size="10" fill="#aaa" font-weight="normal">walk 5.8</text>
<rect x="160" y="172" width="408.0" height="28" fill="#ffa726" stroke="none" stroke-width="1.5" rx="3" opacity="0.88"/>
<text x="573.0" y="190.0" text-anchor="start" font-size="10" fill="#ffa726" font-weight="normal">sprint 8.5</text>
<text x="152" y="190.0" text-anchor="end" font-size="11" fill="#ccc" font-weight="normal">Call of Duty</text>
<rect x="160" y="224" width="192.0" height="28" fill="#66bb6a" stroke="none" stroke-width="1.5" rx="3" opacity="0.45"/>
<text x="357.0" y="242.0" text-anchor="start" font-size="10" fill="#aaa" font-weight="normal">walk 4.0</text>
<rect x="160" y="224" width="312.0" height="28" fill="#66bb6a" stroke="none" stroke-width="1.5" rx="3" opacity="0.88"/>
<text x="477.0" y="242.0" text-anchor="start" font-size="10" fill="#66bb6a" font-weight="normal">sprint 6.5</text>
<text x="152" y="242.0" text-anchor="end" font-size="11" fill="#ccc" font-weight="normal">Hunt: Showdown</text>
<rect x="160" y="276" width="168.0" height="28" fill="#ef5350" stroke="none" stroke-width="1.5" rx="3" opacity="0.45"/>
<text x="333.0" y="294.0" text-anchor="start" font-size="10" fill="#aaa" font-weight="normal">walk 3.5</text>
<rect x="160" y="276" width="264.0" height="28" fill="#ef5350" stroke="none" stroke-width="1.5" rx="3" opacity="0.88"/>
<text x="429.0" y="294.0" text-anchor="start" font-size="10" fill="#ef5350" font-weight="normal">sprint 5.5</text>
<text x="152" y="294.0" text-anchor="end" font-size="11" fill="#ccc" font-weight="normal">Tarkov</text>
<rect x="160" y="328" width="120.0" height="28" fill="#26c6da" stroke="none" stroke-width="1.5" rx="3" opacity="0.45"/>
<text x="285.0" y="346.0" text-anchor="start" font-size="10" fill="#aaa" font-weight="normal">walk 2.5</text>
<rect x="160" y="328" width="264.0" height="28" fill="#26c6da" stroke="none" stroke-width="1.5" rx="3" opacity="0.88"/>
<text x="429.0" y="346.0" text-anchor="start" font-size="10" fill="#26c6da" font-weight="normal">sprint 5.5</text>
<text x="152" y="346.0" text-anchor="end" font-size="11" fill="#ccc" font-weight="normal">CS2</text>
<rect x="160" y="360" width="18" height="12" fill="#888" stroke="none" stroke-width="1.5" rx="2" opacity="0.45"/>
<text x="182" y="370" text-anchor="start" font-size="11" fill="#aaa" font-weight="normal">Walk</text>
<rect x="240" y="360" width="18" height="12" fill="#888" stroke="none" stroke-width="1.5" rx="2" opacity="0.88"/>
<text x="264" y="370" text-anchor="start" font-size="11" fill="#ccc" font-weight="normal">Sprint</text>
</svg>
